<svg width="69" height="59" viewBox="0 0 69 59" fill="none" xmlns="http://www.w3.org/2000/svg">
<path d="M30.8672 12.2015C23.7811 14.7865 17.7324 18.7753 13.4678 25.1418C6.3895 35.7147 11.2109 46.2188 23.8255 47.7564C24.9038 47.8922 26.0043 47.9046 27.0827 48.0404C30.1217 48.4287 32.0101 50.5502 31.862 53.3299C31.7202 55.9072 29.5924 58.0927 26.7558 58.0269C17.4049 57.8358 9.09705 55.0831 3.67847 46.9287C-1.52501 39.103 -0.758189 30.8778 3.28162 22.8258C11.8259 5.80796 35.0952 -4.00916 52.4794 1.9673C66.0212 6.63216 72.0352 19.5426 66.6746 32.8315C62.8943 42.1989 55.9924 48.6861 47.0155 53.0613C45.9088 53.5991 44.5713 53.982 43.3696 53.919C41.3173 53.8024 39.8371 52.62 39.2074 50.5425C38.584 48.484 39.137 46.6972 40.7495 45.4003C42.0142 44.3882 43.5035 43.67 44.8916 42.8065C49.8305 39.7254 54.0198 35.914 56.675 30.6325C61.1542 21.7172 57.4496 13.4865 47.7662 11.0345C42.0327 9.58411 36.4103 10.3315 30.8799 12.1762L30.8672 12.2015Z" fill="#CBEA13"/>
</svg>
