<svg width="69" height="59" viewBox="0 0 69 59" fill="none" xmlns="http://www.w3.org/2000/svg">
<path d="M30.8672 12.202C23.7811 14.787 17.7324 18.7758 13.4678 25.1423C6.3895 35.7152 11.2109 46.2193 23.8255 47.7569C24.9038 47.8926 26.0043 47.9051 27.0827 48.0408C30.1217 48.4292 32.0101 50.5507 31.862 53.3304C31.7202 55.9077 29.5924 58.0932 26.7558 58.0274C17.4049 57.8363 9.09705 55.0836 3.67847 46.9291C-1.52501 39.1035 -0.758189 30.8783 3.28162 22.8263C11.8259 5.80845 35.0952 -4.00867 52.4794 1.96778C66.0212 6.63265 72.0352 19.5431 66.6746 32.832C62.8943 42.1994 55.9924 48.6866 47.0155 53.0618C45.9088 53.5996 44.5713 53.9825 43.3696 53.9195C41.3173 53.8029 39.8371 52.6205 39.2074 50.543C38.584 48.4845 39.137 46.6977 40.7495 45.4008C42.0142 44.3886 43.5035 43.6705 44.8916 42.8069C49.8305 39.7259 54.0198 35.9145 56.675 30.633C61.1542 21.7177 57.4496 13.487 47.7662 11.035C42.0327 9.5846 36.4103 10.332 30.8799 12.1767L30.8672 12.202Z" fill="#00FFC9"/>
</svg>
