<svg width="49" height="51" viewBox="0 0 49 51" fill="none" xmlns="http://www.w3.org/2000/svg">
<path d="M20.1246 9.42052C16.8202 10.6259 13.9996 12.486 12.0109 15.4548C8.71012 20.3852 10.9584 25.2835 16.8409 26.0005C17.3438 26.0638 17.8569 26.0696 18.3598 26.1329C19.777 26.314 20.6575 27.3033 20.5885 28.5995C20.5223 29.8014 19.5301 30.8206 18.2074 30.7898C13.8468 30.7007 9.97271 29.4171 7.44592 25.6145C5.01942 21.9653 5.37701 18.1297 7.26085 14.3749C11.2452 6.43906 22.0962 1.86114 30.2028 4.64808C36.5176 6.82341 39.3221 12.8438 36.8223 19.0407C35.0595 23.4089 31.841 26.434 27.6549 28.4743C27.1388 28.7251 26.5151 28.9036 25.9547 28.8742C24.9977 28.8199 24.3074 28.2685 24.0138 27.2997C23.7231 26.3398 23.981 25.5066 24.7329 24.9018C25.3227 24.4298 26.0172 24.0949 26.6645 23.6922C28.9676 22.2555 30.9211 20.4782 32.1593 18.0153C34.2481 13.8579 32.5205 10.0197 28.005 8.8763C25.3313 8.19997 22.7095 8.5485 20.1305 9.40872L20.1246 9.42052Z" fill="#2F32FF"/>
<path d="M2 49C5.26425 41.2237 38.8394 29.4482 47 43.6677" stroke="#2F32FF" stroke-width="4" stroke-linecap="round"/>
</svg>
