<svg width="32" height="32" viewBox="0 0 32 32" fill="none" xmlns="http://www.w3.org/2000/svg">
<g clip-path="url(#clip0_236_342)">
<path d="M3.25106 5.442C3.40106 5.137 3.73106 4.962 4.06606 5.007L16.3061 6.537L28.5461 5.007C28.8811 4.967 29.2111 5.142 29.3611 5.442L31.4461 9.612C31.8961 10.507 31.4161 11.592 30.4561 11.867L22.2861 14.202C21.5911 14.402 20.8461 14.107 20.4761 13.487L16.3061 6.537L12.1361 13.487C11.7661 14.107 11.0211 14.402 10.3261 14.202L2.16106 11.867C1.19606 11.592 0.721058 10.507 1.17106 9.612L3.25106 5.442ZM16.3611 11.737L19.1061 16.307C19.8511 17.547 21.3361 18.137 22.7311 17.737L29.1061 15.917V24.267C29.1061 25.367 28.3561 26.327 27.2861 26.597L17.0811 29.147C16.5711 29.277 16.0361 29.277 15.5311 29.147L5.32606 26.597C4.25606 26.322 3.50606 25.362 3.50606 24.262V15.912L9.88606 17.737C11.2761 18.137 12.7661 17.547 13.5111 16.307L16.2511 11.737H16.3611Z" fill="#38E8CA"/>
<path d="M16.3609 11.7373L19.1059 16.3073C19.8509 17.5473 21.3359 18.1373 22.7309 17.7373L29.1059 15.9173V24.2673C29.1059 25.3673 28.3559 26.3273 27.2859 26.5973L17.0809 29.1473C16.5709 29.2773 16.0359 29.2773 15.5309 29.1473L5.32586 26.5973C4.25586 26.3223 3.50586 25.3623 3.50586 24.2623V15.9123L9.88586 17.7373C11.2759 18.1373 12.7659 17.5473 13.5109 16.3073L16.2509 11.7373H16.3609Z" fill="#2E31FF"/>
</g>
<defs>
<clipPath id="clip0_236_342">
<rect width="32" height="32" fill="white"/>
</clipPath>
</defs>
</svg>
