<svg width="79" height="80" viewBox="0 0 79 80" fill="none" xmlns="http://www.w3.org/2000/svg">
<circle cx="39.5" cy="39.6838" r="39.5" fill="#1A085C"/>
<path d="M11.1719 33.3303C14.7251 28.8285 21.5774 19.1295 27.2752 23.2488C30.0502 25.255 30.9945 28.0373 29.7914 32.574C28.5882 37.1107 22.7462 46.4363 22.7462 49.9649C22.7462 54.901 25.6323 57.6747 28.5882 58.4481C32.9679 59.5902 37.3838 56.2183 39.0729 54.901" stroke="url(#paint0_linear_49_3)" stroke-width="5.42936" stroke-miterlimit="10"/>
<path d="M42.7885 29.5939C42.7885 29.5939 39.8868 40.483 39.2353 44.9304C38.7466 48.254 39.374 51.4144 40.478 53.4629C41.7207 55.7772 43.5365 57.5901 45.7445 58.3333C48.1756 59.1552 51.1678 58.7322 53.2309 57.0583C54.8477 55.741 56.0964 53.8919 56.754 51.9159C57.4176 49.9339 57.9545 47.8189 58.232 45.7523C58.6 42.9968 59.2454 37.3951 59.0765 34.6215C58.9438 32.4038 58.1294 28.6814 54.5098 28.6814C52.3803 28.6814 50.5947 30.2888 50.2388 32.4581C49.8828 34.6275 51.0652 36.9056 52.5794 38.0296C55.1433 39.9331 56.754 40.1354 59.4813 39.1272C62.2087 38.1191 65.0169 36.1027 68.5395 32.4581" stroke="url(#paint1_linear_49_3)" stroke-width="5.42936" stroke-miterlimit="10"/>
<defs>
<linearGradient id="paint0_linear_49_3" x1="11.7814" y1="41.0753" x2="40.7379" y2="41.0753" gradientUnits="userSpaceOnUse">
<stop offset="0.291667" stop-color="#00FFC9"/>
<stop offset="0.567708" stop-color="#25D6D9"/>
<stop offset="0.854167" stop-color="#6095F4"/>
<stop offset="1" stop-color="#787CFF"/>
</linearGradient>
<linearGradient id="paint1_linear_49_3" x1="36.3577" y1="43.7158" x2="67.7454" y2="43.7158" gradientUnits="userSpaceOnUse">
<stop offset="0.0416667" stop-color="#00FFC9"/>
<stop offset="0.432292" stop-color="#25D6D9"/>
<stop offset="0.8125" stop-color="#6095F4"/>
<stop offset="1" stop-color="#787CFF"/>
</linearGradient>
</defs>
</svg>
