<svg width="1280" height="630" viewBox="0 0 1280 630" fill="none" xmlns="http://www.w3.org/2000/svg">
<path d="M165.646 546.096C8.11724 579.492 -127.889 397.879 -236.611 346.794C-320.774 307.249 -334 193 4.50006 138.5L331 62.5001L582.5 46.5001C571 126.5 642.308 118.5 625.174 211.993C605.113 321.461 522.819 275.349 421.895 307.248C320.971 339.148 292.494 519.204 165.646 546.096Z" fill="url(#paint0_linear_240_168)"/>
<path d="M-95 186.747C68.5 80.2471 557.546 19.562 658 60.2465C717.5 84.3443 671.5 163.342 617 143.747C572.5 127.747 578.57 33.6215 617 17.247C674.5 -7.25289 752.253 33.4273 822 81.7475C946.5 168 1182.5 174.247 1299 143.747" stroke="url(#paint1_linear_240_168)" stroke-width="18"/>
<defs>
<linearGradient id="paint0_linear_240_168" x1="-256.402" y1="-350.116" x2="94.9621" y2="229.424" gradientUnits="userSpaceOnUse">
<stop stop-color="#2F32FF"/>
<stop offset="1" stop-color="#D3E6FC" stop-opacity="0.18"/>
</linearGradient>
<linearGradient id="paint1_linear_240_168" x1="-224.598" y1="98.3116" x2="1400.7" y2="98.3116" gradientUnits="userSpaceOnUse">
<stop offset="0.57" stop-color="#00FFC9"/>
<stop offset="0.69" stop-color="#25D6D9"/>
<stop offset="0.9" stop-color="#6095F4"/>
<stop offset="1" stop-color="#787CFF"/>
</linearGradient>
</defs>
</svg>
