<svg width="166" height="79" viewBox="0 0 166 79" fill="none" xmlns="http://www.w3.org/2000/svg">
<g clip-path="url(#clip0_202_114)">
<path d="M18.7719 70.5115C13.0117 67.2766 8.45159 62.8104 5.08105 57.0815C1.70007 51.3631 0.0200195 44.8829 0.0200195 37.6514C0.0200195 30.4199 1.70007 24.0441 5.08105 18.3257C8.45159 12.6073 13.0117 8.13063 18.7719 4.89576C24.5321 1.66089 30.8453 0.043457 37.7325 0.043457C44.6197 0.043457 51.0164 1.66089 56.7453 4.88533C62.4637 8.1202 66.9926 12.5968 70.3318 18.3153C73.671 24.0441 75.3407 30.4825 75.3407 37.641C75.3407 44.7995 73.671 51.3527 70.3318 57.0711C66.9926 62.8 62.4533 67.2766 56.6931 70.501C50.9329 73.7359 44.6197 75.3429 37.7325 75.3429C30.8453 75.3429 24.5321 73.7255 18.7719 70.501V70.5115ZM49.4198 59.1894C52.7904 57.1859 55.42 54.3267 57.3192 50.6014C59.2184 46.876 60.1576 42.5664 60.1576 37.641C60.1576 32.7157 59.208 28.4268 57.3192 24.7328C55.42 21.0492 52.7904 18.2213 49.4198 16.2491C46.0493 14.2873 42.157 13.296 37.7325 13.296C33.308 13.296 29.3949 14.2769 25.9826 16.2491C22.5703 18.2213 19.9302 21.0388 18.031 24.7328C16.1318 28.4164 15.1822 32.7261 15.1822 37.641C15.1822 42.5559 16.1318 46.876 18.031 50.6014C19.9302 54.3267 22.5807 57.1859 25.9826 59.1894C29.3844 61.193 33.308 62.1947 37.7325 62.1947C42.157 62.1947 46.0493 61.193 49.4198 59.1894Z" fill="#2E31FF"/>
<path d="M140.205 63.3843H165.02V75.3638H125.095V0.043457H140.205V63.3843Z" fill="#2E31FF"/>
<path d="M103.777 23.1987C101.784 29.0319 99.78 34.8547 97.7869 40.6879C96.4825 44.4967 95.1677 48.3159 94.5311 52.2917C93.8841 56.257 93.9363 60.4206 95.3033 64.1981C96.6703 67.9756 99.4669 71.3461 103.203 72.8383C107.471 74.5288 112.584 73.5271 116.153 70.6365C118.949 68.3617 120.807 65.0955 121.944 61.6833C123.092 58.2606 123.572 54.6709 124.052 51.0917C124.689 46.3333 126.556 40.9175 126.264 36.1278C126.035 32.2981 123.822 24.8475 117.854 26.7153C115.704 27.3936 113.794 30.3572 113.878 33.5921C113.972 36.9208 115.527 39.1435 117.342 40.4792C120.671 42.921 125.023 41.6375 126.932 40.5731C128.842 39.4983 133.725 38.8409 137.273 33.1538" stroke="url(#paint0_linear_202_114)" stroke-width="9.39158" stroke-miterlimit="10"/>
<path d="M46.498 20.4754C52.6443 12.7013 63.4864 11.4595 68.2761 14.924C73.0658 18.3884 73.3371 24.2529 72.0014 28.5104C70.6657 32.7784 62.6933 56.0069 61.8793 61.4122C61.0132 67.1411 63.5698 72.056 69.0691 73.2038C76.7285 74.8004 83.1983 71.816 86.1201 69.5411" stroke="url(#paint1_linear_202_114)" stroke-width="9.39158" stroke-miterlimit="10"/>
</g>
<defs>
<linearGradient id="paint0_linear_202_114" x1="89.4283" y1="50.0169" x2="141.249" y2="50.0169" gradientUnits="userSpaceOnUse">
<stop offset="0.57" stop-color="#00FFC9"/>
<stop offset="0.69" stop-color="#25D6D9"/>
<stop offset="0.9" stop-color="#6095F4"/>
<stop offset="1" stop-color="#787CFF"/>
</linearGradient>
<linearGradient id="paint1_linear_202_114" x1="42.8144" y1="43.37" x2="89.0106" y2="43.37" gradientUnits="userSpaceOnUse">
<stop offset="0.57" stop-color="#00FFC9"/>
<stop offset="0.69" stop-color="#25D6D9"/>
<stop offset="0.9" stop-color="#6095F4"/>
<stop offset="1" stop-color="#787CFF"/>
</linearGradient>
<clipPath id="clip0_202_114">
<rect width="165" height="78.3047" fill="white" transform="translate(0.0200195 0.043457)"/>
</clipPath>
</defs>
</svg>
