<svg width="32" height="32" viewBox="0 0 32 32" fill="none" xmlns="http://www.w3.org/2000/svg">
<path d="M5.39317 24.6777C3.57584 22.8603 2.6665 21.951 2.6665 20.8217C2.6665 19.691 3.57584 18.7817 5.39317 16.9643L16.9638 5.39366C18.7825 3.57633 19.6905 2.66699 20.8212 2.66699C21.9505 2.66699 22.8598 3.57633 24.6772 5.39366L26.6065 7.32299C28.4238 9.14033 29.3332 10.0497 29.3332 11.179C29.3332 12.3083 28.4238 13.219 26.6065 15.0363L15.0358 26.607C13.2172 28.4243 12.3065 29.3337 11.1785 29.3337C10.0505 29.3337 9.13984 28.4243 7.3225 26.607L5.39317 24.6777Z" fill="#2E31FF"/>
<path d="M11.656 11.2859L13.544 13.1739M17.3133 5.62988L19.1987 7.51522M6 16.9432L7.88533 18.8285M8.828 14.1152L11.6573 16.9432M14.4853 8.45788L17.3133 11.2859" stroke="#38E8CA" stroke-width="2.5" stroke-linecap="round"/>
</svg>
